<mxfile host="app.diagrams.net" modified="2023-05-20T13:35:44.908Z" agent="Mozilla/5.0 (Windows NT 10.0; Win64; x64) AppleWebKit/537.36 (KHTML, like Gecko) Chrome/113.0.0.0 Safari/537.36" etag="PCovu1_kmiEtsPrg0Yk2" version="21.3.2" type="github">
  <diagram name="Página-1" id="ZsWGvR_CJ-Xvulu1Hz_D">
    <mxGraphModel dx="880" dy="484" grid="1" gridSize="10" guides="1" tooltips="1" connect="1" arrows="1" fold="1" page="1" pageScale="1" pageWidth="827" pageHeight="1169" math="0" shadow="0">
      <root>
        <mxCell id="0" />
        <mxCell id="1" parent="0" />
        <mxCell id="BkIVylYhDz4DRzOmCXPh-10" value="Usuário" style="shape=umlActor;verticalLabelPosition=bottom;verticalAlign=top;html=1;" vertex="1" parent="1">
          <mxGeometry x="80" y="310" width="30" height="60" as="geometry" />
        </mxCell>
        <mxCell id="BkIVylYhDz4DRzOmCXPh-11" value="Manter Ingressos" style="ellipse;whiteSpace=wrap;html=1;" vertex="1" parent="1">
          <mxGeometry x="300" y="305" width="140" height="70" as="geometry" />
        </mxCell>
        <mxCell id="BkIVylYhDz4DRzOmCXPh-12" value="Favoritar Atração" style="ellipse;whiteSpace=wrap;html=1;" vertex="1" parent="1">
          <mxGeometry x="290" y="150" width="140" height="70" as="geometry" />
        </mxCell>
        <mxCell id="BkIVylYhDz4DRzOmCXPh-13" value="Listar Atracões" style="ellipse;whiteSpace=wrap;html=1;" vertex="1" parent="1">
          <mxGeometry x="300" y="460" width="140" height="70" as="geometry" />
        </mxCell>
        <mxCell id="BkIVylYhDz4DRzOmCXPh-16" value="" style="endArrow=none;html=1;rounded=0;exitX=0.5;exitY=0.5;exitDx=0;exitDy=0;exitPerimeter=0;entryX=0;entryY=0.5;entryDx=0;entryDy=0;" edge="1" parent="1" source="BkIVylYhDz4DRzOmCXPh-10" target="BkIVylYhDz4DRzOmCXPh-11">
          <mxGeometry width="50" height="50" relative="1" as="geometry">
            <mxPoint x="400" y="180" as="sourcePoint" />
            <mxPoint x="450" y="130" as="targetPoint" />
          </mxGeometry>
        </mxCell>
        <mxCell id="BkIVylYhDz4DRzOmCXPh-17" value="Manter Login" style="ellipse;whiteSpace=wrap;html=1;" vertex="1" parent="1">
          <mxGeometry x="150" y="580" width="140" height="70" as="geometry" />
        </mxCell>
        <mxCell id="BkIVylYhDz4DRzOmCXPh-18" value="" style="endArrow=none;html=1;rounded=0;exitX=0.5;exitY=0.5;exitDx=0;exitDy=0;exitPerimeter=0;entryX=0;entryY=0.5;entryDx=0;entryDy=0;" edge="1" parent="1" source="BkIVylYhDz4DRzOmCXPh-10" target="BkIVylYhDz4DRzOmCXPh-13">
          <mxGeometry width="50" height="50" relative="1" as="geometry">
            <mxPoint x="400" y="520" as="sourcePoint" />
            <mxPoint x="450" y="470" as="targetPoint" />
          </mxGeometry>
        </mxCell>
        <mxCell id="BkIVylYhDz4DRzOmCXPh-23" value="" style="endArrow=none;html=1;rounded=0;exitX=0.5;exitY=0.5;exitDx=0;exitDy=0;exitPerimeter=0;entryX=0;entryY=0.5;entryDx=0;entryDy=0;" edge="1" parent="1" source="BkIVylYhDz4DRzOmCXPh-10" target="BkIVylYhDz4DRzOmCXPh-12">
          <mxGeometry width="50" height="50" relative="1" as="geometry">
            <mxPoint x="400" y="420" as="sourcePoint" />
            <mxPoint x="450" y="370" as="targetPoint" />
          </mxGeometry>
        </mxCell>
      </root>
    </mxGraphModel>
  </diagram>
</mxfile>
